<?xml version="1.0" encoding="utf-8"?>
<!-- Generator: Adobe Illustrator 16.0.0, SVG Export Plug-In . SVG Version: 6.00 Build 0)  -->
<!DOCTYPE svg PUBLIC "-//W3C//DTD SVG 1.1//EN" "http://www.w3.org/Graphics/SVG/1.1/DTD/svg11.dtd">
<svg version="1.1" id="Layer_6_copy_2" xmlns="http://www.w3.org/2000/svg" xmlns:xlink="http://www.w3.org/1999/xlink" x="0px"
	 y="0px" width="720px" height="360px" viewBox="0 0 720 360" enable-background="new 0 0 720 360" xml:space="preserve">
<g>
	<path fill-rule="evenodd" clip-rule="evenodd" fill="#A90533" d="M655.085,197.385c-1.275-2.222-43.856-21.614-58.659-28.48
		c-6.942-3.221-13.722-6.233-20.401-9.129c-0.953-0.646-2.336-1.481-4.339-2.587c17.516,7.719,35.172,15.562,53.206,23.737
		c19.02,8.622,37.011,14.654,14.475,4.137c-27.114-12.65-61.069-27.193-86.237-38.339c-30.447-13.709-62.383-28.467-93.906-42.606
		c-16.717-7.417-33.446-14.836-50.018-22.185c-17.365-7.6-34.562-15.129-51.432-22.511c-1.856,0.855-3.668,1.688-5.474,2.521
		c-1.679,0.78-3.367,1.564-5.065,2.352c-45.045,18.514-89.019,37.03-130.419,55.41c-1.367,0.604-1.455,0.745-1.837,1.047
		c-0.381,0.298,0.139,0.409,3.953-1.042c15.126-5.743,30.954-12.077,47.404-18.829c-21.285,9.52-42.548,19.03-62.681,28.229
		c-7.397,3.257-10.235,4.75-18.038,7.67c-17.896,6.69-42.628,19.725-62.243,27.912c-3.72,1.549-19.883,7.532-20.356,7.744
		c-28.907,12.996,14.805-3.874,12.938-3.136c4.093-1.604,6.611-2.714,10.832-4.277c-8.812,4.103-17.686,8.028-26.546,12.069
		c-8.514,3.282-16.963,6.552-25.854,10.758c-8.423,3.989-9.719,5.683-9.747,5.637c-0.614,1.562,1.807,1.638,5.564,0.937
		c-12.327,6.646-6.923,5.901,1.319,3.483c-2.229,1.089-3.69,1.909-3.849,2.268c-0.281,0.625,1.262,0.421,3.87-0.288
		c-7.021,3.915-7.859,5.083,6.897-1.364c3.816-1.614,7.585-3.229,11.334-4.846c9.411-3.478,18.43-7.023,19.239-7.283
		c6.989-2.262-1.242,1.83,9.054-1.894c16.671-6.026,33.728-12.7,51.099-19.75c-5.574,2.539-10.802,4.83-15.38,6.632
		c-4.312,1.718-19.001,8.149-32.742,14.127c-6.88,2.971-14.396,5.564-19.369,7.709c-4.986,2.117-5.229,2.613-4.483,2.691
		c0.747,0.078,4.524-1.575,7.468-2.599c5.872-2.084,13.013-4.699,18.306-6.771c58.34-22.854,67.378-28.789,125.362-53.538
		c5.937-2.547,52-20.198,65.02-25.784c6.515-2.784,12.663-5.408,17.195-7.345c2.271-0.96,17.171-6.991,21.824-9.456
		c3.466-1.838,2.881-2.34,2.566-2.233c-6.268,1.946-12.879,4.206-19.744,6.697c5.623-2.523,10.623-4.786,14.477-6.539
		c3.229-1.139,7.48-3.076,8.526-3.56l0.95,0.254c2.648,1.444,12.523,6.793,17.843,9.174c3.401,1.516,38.986,16.942,38.303,16.101
		c-1.896-2.339-14.528-7.541-26.102-12.737c-2.283-1.026-4.571-2.123-6.717-3.181c10.365,4.258,22.653,9.354,33.021,13.808
		c9.838,4.392,19.489,8.713,28.998,12.965c24.917,11.383,54.601,25.12,75.431,32.965c5.425,2.275,10.843,4.525,16.249,6.726
		c-0.006-0.009-0.028-0.025-0.045-0.045c11.692,5.95,20.452,8.854,18.378,7.084c-1.295-1.107-12.613-5.938-21.027-10.019
		c12.65,3.697,59.768,26.675,82.399,36.315c18.407,7.839,37.484,14.229,19.069,4.076c-0.645-0.339-8.013-4.204-15.204-7.974
		c-3.315-1.751-6.578-3.486-9.124-4.873c11.603,5.181,23.186,10.356,34.747,15.52c10.182,4.313,6.963,0.199,4.192-1.614
		c0.089,0.012,0.193,0.034,0.274,0.043C650.075,199.256,656.012,199.003,655.085,197.385z"/>
</g>
<g>
	<path fill-rule="evenodd" clip-rule="evenodd" fill="#DFC9A0" d="M127.434,221.762c-0.092-0.08,1.737-0.95,2.92-1.335
		c1.188-0.327,3.123-1.131,5.59-1.551c1.237-0.196,2.492-0.396,3.688-0.584c1.206-0.116,2.356-0.216,3.38-0.313
		c2.051-0.222,4.159-0.372,4.621-0.393c1.502-0.013,4.033-0.261,6.181-0.165c1.635,0.073,2.586,0.105,4.23,0.188
		c0.769,0.041,1.492,0.161,2.256,0.265c3.125,0.417,7.37,1.457,7.969,1.66c0.936,0.321-1.481-0.084-0.992,0.843
		c-0.156-0.298-1.302-0.401-1.578-0.461c-0.954-0.204-1.507-0.219-2.455-0.079c-1.161,0.175-2.131,0.399-3.31,0.301
		c-1.076-0.087-2.149-0.208-3.225-0.329c-1.942-0.219,1.804-0.517-0.153-0.584c-2.045-0.195-2.959-0.224-7.362-0.188
		c-1.496,0.014-8.714,0.694-9.773,0.901c-1.054,0.229-2.709,0.339-3.78,0.568c-2.139,0.391-4.596,0.959-5.758,1.067
		C128.721,221.739,127.854,222.128,127.434,221.762z M232.344,284.88c-0.15-1.267-0.313-2.683-0.537-4.059
		c-0.26-1.368-0.534-2.711-0.811-3.849c-3.343-12.487-9.024-22.394-16.244-30.814c-3.639-4.204-7.715-8.041-12.349-11.551
		c-4.635-3.501-9.83-6.698-15.798-9.383c-2.415-1.162-8.527-3.553-14.235-4.931c-1.424-0.355-2.825-0.629-4.105-0.915
		c-1.286-0.262-2.476-0.433-3.479-0.611c-1.002-0.187-1.834-0.284-2.415-0.36c-0.58-0.079-0.91-0.13-0.919-0.15
		c-0.219-0.461-1.131,0.562-0.82,0.648c0.215,0.054,0.444,0.113,0.662,0.169c-2.798-0.191-5.581-0.228-8.305-0.104
		c-10.766,0.43-20.731,2.903-30.099,6.152c-6.694,2.256-15.481,6.192-22.653,11.691c-3.59,2.716-6.774,5.734-9.267,8.661
		c-2.438,2.977-5.538,8.346-5.085,8.159c0.454-0.184,2.428-1.447,2.271-1.891c0.311,0.912-2.118,4.814-4.288,8.869
		c-1.104,2.021-2.099,4.104-2.888,5.739c-0.728,1.664-1.24,2.888-1.335,3.214c-1.651,7.051,1.178,0.448,2.46-1.938
		c2.519-4.778,3.417-5.734,2.844-4.573c-0.547,1.176-2.293,4.644-4.012,9.258c-1.063,2.701-3.194,8.602-4.062,14.405
		c-0.942,5.806-0.714,11.288,0.435,12.716c0.648,0.675,1.199,1.038,1.81,0.796c0,0,0.847,0.76,1.125,0.596
		c0.315-0.184,0.641-1.406,0.959-3.233c0.143-0.953,0.396-1.81,0.587-2.865c0.179-1.012,0.458-2.163,0.726-3.343
		c1.042-4.722,2.78-9.817,3.881-12.356c2.295-5.443,4.62-10.397,7.438-14.999c2.811-4.582,6.007-8.903,10.118-12.547
		c7.181-6.438,16.08-11.337,25.562-14.214c9.494-2.908,19.492-3.944,29.465-3.65c5.525,0.222,11.64,1.391,17.564,3.754
		c5.945,2.3,11.701,5.693,16.779,9.729c5.109,4.018,10.317,8.659,14.028,13.312c3.671,4.691,6.621,8.674,8.644,13.124
		c1.725,3.778,3.289,8.05,3.997,12.162c0.721,4.125,0.941,8.192,1.485,11.958c0.418,3.44,1.011,1.308,0.781,1.202
		c1.191,0.514,2.193-0.798,2.779-2.782c0.278-0.989,0.521-2.146,0.634-3.296c0.094-1.146,0.125-2.294,0.11-3.27
		c-0.19-3.398-0.237-4.597-0.103-4.443c0.178,0.146,0.451,1.648,0.818,3.595c0.702,3.901,1.019,9.651,1.661,9.989
		c0.453,0.214,0.837-0.654,1.112-2.112c0.202-1.455,0.404-3.513,0.316-5.612c0.004-2.111-0.26-4.252-0.426-5.927
		c-0.24-1.661-0.445-2.844-0.45-3.029c-0.182-2.886,1.156,0.475,0.464-3.785c-0.324-1.861-0.756-3.726-1.276-5.586
		c0.696,1.682,1.383,3.495,1.959,5.305c0.947,2.887,1.289,4.848,1.743,6.998c0.401,2.159,0.64,6.402,0.913,4.595
		C232.788,287.689,232.551,287.429,232.344,284.88z M457.761,294.361c-0.346,1.371-0.93,1.448-1.595,1.279
		c0.004-1.521-0.138-3.034-0.286-4.543s-0.255-3.023-0.444-4.524c-0.383-2.199-0.657-4.415-1.07-6.601
		c-0.017,0.011-0.033,0.023-0.052,0.029c0.354,2.174,0.566,4.372,0.875,6.544c0.148,1.484,0.201,2.982,0.298,4.469
		c0.087,1.49,0.2,2.973,0.143,4.464c-0.57-0.186-1.167-0.354-1.7,0.034c0,0,0.067,1.803,0.103,2.708
		c-1.247,3.647-3.219,2.678-4.666,1c-0.298-0.435-0.632-0.917-0.972-1.454c0.044-0.422,0.083-0.846,0.126-1.26
		c0.193-3.475-0.015-6.94-0.469-10.457c-0.118,0.141-0.233,0.242-0.349,0.319c0.266,3.439,0.268,6.847-0.03,10.15
		c-0.356-0.666-0.665-1.396-0.92-2.191c-0.297-0.787-0.52-1.645-0.616-2.579c-0.058-1.136-0.115-2.262-0.171-3.382
		c-0.14-1.121-0.275-2.236-0.415-3.342c-0.078-0.542-0.141-1.084-0.21-1.626c-0.126-0.409-0.258-0.851-0.408-1.35
		c-0.224-0.666-0.45-1.41-0.673-2.235c-0.189-0.82-0.491-1.732-0.816-2.731c-2.612-8.993-7.55-19.527-14.308-29.483
		c-3.383-4.972-7.242-9.808-11.529-14.091c-0.988-0.921-1.956-1.879-2.954-2.775c-0.199-0.163-0.389-0.335-0.587-0.493
		c-0.656-0.521-1.965-1.566-2.617-2.088c-0.107-0.125-0.225-0.233-0.332-0.356c-0.082-0.059-0.154-0.128-0.234-0.187
		c-1.208-0.831-2.301-1.712-3.588-2.495c-1.28-0.779-2.562-1.553-3.832-2.326c-5.768-3.252-11.822-5.822-18.01-7.543
		c2.954,1.113,5.823,2.386,8.583,3.788c2.093,1.271-8.171-1.948-11.372-2.972c-7.333-2.533-12.43-2.878-19.726-3.113
		c-2.974,0.07-5.938,0.211-8.892,0.4c-6.762,0.445-13.637,1.532-20.332,3.337c-1.088,0.335-2.173,0.69-3.252,1.07
		c0.694-0.262,1.392-0.513,2.094-0.755c-4.93,1.397-9.754,3.188-14.336,5.465c-4.886,2.353-9.446,5.262-13.683,8.543
		c-2.17,1.907-4.234,3.957-6.158,6.175c0.751-0.464,0.577,0.091,0.606,0.372c8.921-9.123,19.854-15.721,31.477-19.8
		c-7.024,2.633-13.717,6.153-19.822,10.56c-14.646,10.494-26.165,25.658-32.224,43.385c-0.252,0.759-0.628,1.895-1.006,3.029
		c-0.323,1.154-0.648,2.308-0.864,3.074c-2.656,5.906-4.006,12.373-4.272,18.861c-0.047,0.976-1.776,1.327-2.761,1.086
		c-0.484-0.124-1.305-1.634-1.442-2.949c-0.139-1.316-0.672-2.889-0.021-6.248c0.176-0.68-0.706-1.59-0.834-0.766
		c-0.914,3.366-1.695,6.259-2.546,8.482c-0.771,2.225-1.617,3.785-2.428,4.463c-0.788,0.636-1.598,0.476-2.231-0.864
		c-0.607-1.33-1.229-3.795-1.23-7.562c-0.074-8.475,1.889-18.361,5.562-28.057c3.704-9.703,9.095-19.161,15.188-27.518
		c4.47-6.06,9.601-11.655,15.346-16.539c5.755-4.868,12.144-8.992,18.959-12.137c2.327-1.112,4.76-2.052,7.183-3.046
		c2.469-0.891,4.939-1.818,7.485-2.562c5.068-1.537,10.277-2.822,15.567-3.546c5.28-0.735,10.604-1.153,15.858-0.987
		c2.627,0.069,5.264,0.328,7.849,0.561c0.052,0.011,0.104,0.018,0.158,0.026c1.037-0.016,2.087-0.016,3.217,0.053l2.744,0.111
		c0.914,0.041,1.832,0.057,2.729,0.207l5.427,0.728l5.325,1.176c1.772,0.408,3.468,1.022,5.209,1.53
		c6.87,2.264,13.391,5.378,19.504,9.107c1.511,0.981,3.032,1.851,4.534,2.938l2.252,1.639c0.766,0.539,1.498,1.102,2.182,1.701
		c2.854,2.321,5.528,4.801,8.044,7.409c5.034,5.216,9.505,10.899,13.487,16.976c0.658,1.047,1.646,2.619,2.635,4.192
		c0.92,1.62,1.84,3.24,2.451,4.317c1.894,4.632,3.799,9.209,5.287,14.013c1.529,4.77,2.88,9.644,3.555,14.82
		c-0.099-0.119-0.197-0.197-0.292-0.254c0.142,1.013,0.257,2.024,0.292,3.038C457.014,285.924,458.471,292.418,457.761,294.361z
		 M353.078,200.737c-10.185,0.489-20.33,2.536-30.065,5.99c7.942-2.647,16.216-4.511,24.65-5.409
		C349.468,201.097,351.274,200.906,353.078,200.737z M319.643,219.018c-0.217,0.096-0.474,0.211-0.752,0.341
		c-0.393,0.208-0.806,0.406-1.189,0.616C318.343,219.646,318.992,219.33,319.643,219.018z M371.503,199.077
		c0.03,0.007,0.067,0.012,0.101,0.019c1.268,0.213,2.527,0.408,3.754,0.745c3.603,0.746,8.568,1.611,12.967,2.855
		c2.201,0.577,4.251,1.246,5.942,1.908c-0.401-0.316-2.325-1.503-4.382-2.189c-2.223-0.719-4.909-1.492-4.909-1.492
		c-1.14-0.232-2.678-0.635-3.84-0.749c0,0-4.59-0.854-7.186-0.992C373.144,199.153,372.322,199.113,371.503,199.077z
		 M644.305,295.104c-0.157,1.005-0.808,1.871-1.728,1.647c-0.216-0.053-0.515-0.485-0.811-1.091
		c-0.015,6.34-1.657,5.182-1.801,3.769c-0.102-1.008-0.791-3.688-1.488-6.827c-0.321,4.274-1.385,7.148-2.256,8.116
		c-0.729,0.806-1.403,0.465-2.066-0.912c-0.325-0.696-0.636-1.671-0.916-2.943c-0.282-1.271-0.702-2.828-1.009-4.707
		c-1.71-8.391-4.499-18.018-9.908-26.95c-5.281-8.937-13.008-17.099-21.985-22.368c-6.455-3.932-13.507-6.779-20.807-8.518
		c-7.303-1.758-14.879-2.312-22.427-1.955c-10.395,0.452-21.154,3.792-30.538,9.502c-9.443,5.664-17.425,13.62-23.48,22.403
		c-2.169,3.226-4.429,8.108-5.948,12.705c-1.576,4.584-2.488,8.834-3.276,10.668c-0.947,2.669-1.577,2.716-2.256,2.167
		c2.068-12.977,7.682-25.297,16.013-35.169c5.208-5.965,5.224-6.143,0,0c-8.416,9.759-14.195,21.844-16.537,34.672
		c-0.544-0.565-1.114-1.143-1.865-0.438c0,0-0.06,0.251-0.104,0.67c-0.05,0.415-0.126,0.993-0.208,1.634
		c-0.078,0.64-0.165,1.347-0.245,2.021c-0.052,0.674-0.101,1.319-0.143,1.836c-0.58,2.031-0.981,3.455-1.467,4.368
		c-0.47,0.91-0.945,1.311-1.414,1.311c-0.933,0.005-1.828-1.615-2.548-3.862c-0.256-1.142-0.499-2.435-0.748-3.893
		c0.148-1.09,0.39-2.169,0.577-3.24c1.814-9.897,5.135-19.478,10.254-28.371c1.813-3.147,3.867-6.371,6.146-9.514
		c-8.793,11.038-14.751,24.198-17.336,37.678c-0.223-3.697-0.013-8.209,1.515-13.147c3.882-11.8,11.291-23.732,18.466-31.314
		c0.353-0.369,0.689-0.719,1.029-1.063c-0.026,0.025-0.049,0.048-0.076,0.075c10.386-11.394,20.105-16.632,32.187-21.053
		c12.108-4.321,25.154-5.983,37.921-4.435c3.209,0.267,6.358,0.969,9.523,1.582l4.677,1.256c0.786,0.194,1.552,0.44,2.312,0.723
		l2.288,0.802c6.063,2.229,11.987,5.021,17.393,8.68c10.902,7.148,20.195,17.004,26.72,28.688c1.145,1.972,3.159,6.074,3.997,8.2
		C643.699,279.302,644.981,289.386,644.305,295.104z M558.68,221.11c-9.091,0.377-18.242,2.446-26.82,6.006
		c-4.114,1.71-8.079,3.795-11.854,6.181c1.33-0.581,2.688-1.176,4.086-1.931c3.546-1.936,7.257-3.731,11.112-5.155
		c3.849-1.438,7.79-2.647,11.744-3.491C550.904,221.903,554.848,221.321,558.68,221.11z M572.064,219.06
		c-0.955-0.147-4.287-0.449-7.03-0.515c-6.364-0.153-11.989,0.338-18.442,1.745c-14.024,3.064-28.364,9.939-39.6,19.892
		c4.326-3.764,7.632-5.473,12.051-8.291c7.946-5.066,16.771-8.595,25.83-10.51c7.847-1.655,18.101-2.87,28.023-1.785
		C576.28,219.967,573.021,219.207,572.064,219.06z M505.296,241.719c-0.093,0.091-0.186,0.173-0.276,0.262
		C505.112,241.892,505.205,241.806,505.296,241.719z"/>
</g>
</svg>
